<svg width="30" height="31" viewBox="0 0 30 31" fill="none" xmlns="http://www.w3.org/2000/svg">
<g filter="url(#filter0_d_205_37)">
<path fill-rule="evenodd" clip-rule="evenodd" d="M6 12C6 7.02944 10.0294 3 15 3C19.9706 3 24 7.02944 24 12C24 16.9706 19.9706 21 15 21C10.0294 21 6 16.9706 6 12ZM15 1C8.92487 1 4 5.92487 4 12C4 18.0751 8.92487 23 15 23C21.0751 23 26 18.0751 26 12C26 5.92487 21.0751 1 15 1ZM16 6C16 5.44772 15.5523 5 15 5C14.4477 5 14 5.44772 14 6V12C14 12.3788 14.214 12.725 14.5528 12.8944L18.5528 14.8944C19.0468 15.1414 19.6474 14.9412 19.8944 14.4472C20.1414 13.9532 19.9412 13.3526 19.4472 13.1056L16 11.382V6Z" fill="#222222"/>
</g>
<defs>
<filter id="filter0_d_205_37" x="-1" y="0" width="32" height="32" filterUnits="userSpaceOnUse" color-interpolation-filters="sRGB">
<feFlood flood-opacity="0" result="BackgroundImageFix"/>
<feColorMatrix in="SourceAlpha" type="matrix" values="0 0 0 0 0 0 0 0 0 0 0 0 0 0 0 0 0 0 127 0" result="hardAlpha"/>
<feOffset dy="4"/>
<feGaussianBlur stdDeviation="2"/>
<feComposite in2="hardAlpha" operator="out"/>
<feColorMatrix type="matrix" values="0 0 0 0 0 0 0 0 0 0 0 0 0 0 0 0 0 0 0.25 0"/>
<feBlend mode="normal" in2="BackgroundImageFix" result="effect1_dropShadow_205_37"/>
<feBlend mode="normal" in="SourceGraphic" in2="effect1_dropShadow_205_37" result="shape"/>
</filter>
</defs>
</svg>
